<svg width="55" height="56" viewBox="0 0 55 56" fill="none" xmlns="http://www.w3.org/2000/svg">
<path d="M54.1332 37.1904C53.9152 36.3959 53.4231 35.7982 52.7129 35.4678C51.2223 34.7646 49.0637 35.4537 47.4535 36.1287C47.2285 35.1584 46.7293 34.0545 45.6324 33.492C44.4442 32.8803 42.9746 33.0982 41.1746 34.1529C41.0199 33.7803 40.7738 33.4287 40.3942 33.1404C39.0723 32.1631 36.3723 31.91 27.1965 38.5123C26.3317 38.2803 25.502 37.992 24.7426 37.6123C23.491 36.9865 22.4645 35.9951 21.3746 34.9475C20.1512 33.7662 18.8785 32.5428 17.1981 31.7693C14.9973 30.7568 12.3535 30.5178 9.56916 31.0732C6.60197 31.6639 3.61369 33.042 0.920719 35.0459C0.393375 35.4396 0.280875 36.185 0.674625 36.7193C1.06837 37.2467 1.81369 37.3592 2.34806 36.9654C4.72463 35.2006 7.45275 33.942 10.0402 33.4217C12.3324 32.9646 14.4629 33.1475 16.2067 33.949C17.5215 34.5537 18.5903 35.5873 19.7223 36.6771C20.8895 37.8021 22.0988 38.9693 23.6809 39.7568C25.8817 40.8537 28.4762 41.4373 31.2043 41.4373C31.4856 41.4373 31.8512 41.4162 32.2731 41.3881C34.1223 41.2545 35.1699 41.3248 35.3879 41.585C35.3879 41.585 35.4371 41.7326 35.2965 42.1334C34.8113 43.5396 31.0426 44.0951 29.6223 44.306L29.2707 44.3553C24.6793 45.0514 20.4676 43.7154 17.7254 40.685C17.2824 40.1928 16.5301 40.1576 16.0379 40.6006C15.5528 41.0436 15.5106 41.7959 15.9535 42.2881C18.6817 45.2975 22.577 46.9217 26.9082 46.9217C27.8012 46.9217 28.7082 46.8514 29.6293 46.7107L29.9738 46.6615C32.2942 46.317 36.6043 45.6842 37.5606 42.9068C38.0387 41.5217 37.6801 40.6357 37.2934 40.1365C36.1965 38.7092 33.834 38.8779 32.1113 39.0045C31.7528 39.0326 31.4504 39.0537 31.2113 39.0537C31.0285 39.0537 30.8457 39.0326 30.6629 39.0256C37.5395 34.3709 38.9598 35.06 38.9738 35.06C39.0512 35.1795 39.0301 35.6646 38.9106 36.0443C38.7348 36.5435 38.9176 37.099 39.3535 37.4084C39.7895 37.7178 40.3731 37.6967 40.7879 37.3662C42.8481 35.7209 44.0926 35.3904 44.5637 35.6365C45.1051 35.9107 45.2809 37.2115 45.2528 37.8443C45.2317 38.2592 45.4285 38.6529 45.766 38.885C46.1035 39.117 46.5465 39.1592 46.9192 38.9975L47.3129 38.8217C49.6402 37.767 51.1238 37.3732 51.7145 37.6545C51.7567 37.6756 51.8059 37.6967 51.8481 37.8514C52.1856 39.0678 49.9707 40.3475 48.6559 41.1068C48.3113 41.3107 47.9949 41.4865 47.7488 41.6482L42.0535 45.3607C41.1324 45.9654 40.1692 46.6334 39.1848 47.3295C34.0028 50.9576 28.1317 55.0709 22.2324 52.5115C19.6801 51.4006 17.1559 50.36 14.252 49.7764C11.0106 49.1295 7.90978 48.8975 5.01994 49.0873C4.359 49.1295 3.86681 49.699 3.909 50.36C3.95119 51.0209 4.50666 51.5061 5.18166 51.4709C7.85353 51.2881 10.7504 51.5131 13.7809 52.1178C16.4528 52.6521 18.8574 53.6436 21.2832 54.6982C22.9004 55.4014 24.4965 55.7037 26.0574 55.7037C31.3942 55.7037 36.3723 52.2162 40.5559 49.2842C41.5192 48.6092 42.4543 47.9482 43.3613 47.3646L49.0567 43.6521C49.2746 43.5115 49.5488 43.3498 49.8582 43.174C51.7496 42.042 54.9629 40.1787 54.1332 37.1904ZM13.802 22.6779L1.44806 19.9498C0.801187 19.8092 0.168375 20.217 0.02775 20.8568C-0.112875 21.5037 0.294937 22.1365 0.934781 22.2771L13.2887 25.0053C13.3731 25.0264 13.4645 25.0334 13.5488 25.0334C13.7809 25.0334 13.9918 24.9561 14.1817 24.8365V25.2584C14.1817 25.7857 14.5262 26.2568 15.0395 26.4045L24.2645 29.1326C24.377 29.1678 24.4895 29.1818 24.602 29.1818C24.8551 29.1818 25.1082 29.0975 25.3192 28.9428C25.6215 28.7178 25.7973 28.3662 25.7973 27.9865V14.8381L28.216 13.6357C27.9699 13.7975 27.7801 14.0435 27.7098 14.3529C27.5621 14.9928 27.9629 15.6326 28.6098 15.7803L38.8051 18.1217C38.8965 18.1428 38.9809 18.1498 39.0723 18.1498C39.2832 18.1498 39.4942 18.0935 39.684 17.9811L51.0184 11.2381C51.4403 10.985 51.6652 10.4998 51.5879 10.0146C51.5035 9.52949 51.1309 9.14277 50.6527 9.04433L41.1324 7.10371C40.4856 6.97011 39.8527 7.38496 39.7262 8.03183C39.5926 8.67871 40.0074 9.31152 40.6543 9.43808L47.1371 10.767L38.8684 15.6889L29.1371 13.4529C28.8559 13.3896 28.5817 13.4459 28.3426 13.5654L38.327 8.59433C38.7699 8.37636 39.0301 7.90527 38.9809 7.40605C38.9317 6.91386 38.5871 6.49902 38.109 6.37246L28.0684 3.6373C27.7449 3.54589 27.3934 3.60214 27.1121 3.78496L25.4738 4.83261C25.6004 4.69199 25.7059 4.5373 25.7551 4.34043C25.9168 3.70058 25.5301 3.05371 24.8973 2.88496L13.802 0.0372997C13.4926 -0.0400441 13.1692 0.00214353 12.8949 0.170894L0.59025 7.48339C0.168375 7.72949 -0.0566249 8.21464 0.0207189 8.69277C0.0980626 9.17089 0.456656 9.56464 0.934781 9.67011L13.2887 12.5248C13.3801 12.5459 13.4715 12.5529 13.5559 12.5529C13.816 12.5529 14.0692 12.4615 14.266 12.3139C14.2168 12.4475 14.1817 12.581 14.1817 12.7287V13.0943C14.0692 13.024 13.9496 12.9607 13.809 12.9256L1.45509 10.1975C0.808219 10.0568 0.175406 10.4646 0.0347812 11.1045C-0.105844 11.7514 0.301969 12.3842 0.941813 12.5248L13.2957 15.2529C13.3801 15.274 13.4715 15.281 13.5559 15.281C13.7879 15.281 13.9988 15.2037 14.1887 15.0842V16.3357C14.0762 16.2654 13.9567 16.2021 13.816 16.167L1.46212 13.4389C0.81525 13.2982 0.182437 13.706 0.0418123 14.3459C-0.0988127 14.9928 0.309 15.6256 0.948844 15.7662L13.3027 18.4943C13.3871 18.5154 13.4785 18.5225 13.5629 18.5225C13.7949 18.5225 14.0059 18.4451 14.1957 18.3256V19.5771C14.0832 19.5068 13.9637 19.4436 13.8231 19.4084L1.46916 16.6803C0.822281 16.5396 0.189469 16.9475 0.048844 17.5873C-0.091781 18.2342 0.316031 18.867 0.955875 19.0076L13.3098 21.7357C13.3942 21.7568 13.4856 21.7639 13.5699 21.7639C13.802 21.7639 14.0129 21.6865 14.2028 21.567V22.8186C14.0621 22.7693 13.9426 22.7061 13.802 22.6779ZM20.2356 16.3779V17.4959C20.116 17.5451 20.0035 17.6014 19.9121 17.6787C19.7996 17.7701 19.7082 17.8826 19.6379 18.0162C19.5676 18.1498 19.5324 18.3045 19.5324 18.4662C19.5324 18.6771 19.5817 18.86 19.6871 18.9936C19.7785 19.1131 19.8981 19.2185 20.0387 19.2959C20.1652 19.3662 20.3059 19.4295 20.4606 19.4717C20.5942 19.5139 20.7207 19.5561 20.8332 19.6053C20.9387 19.6475 21.0231 19.7037 21.0863 19.767C21.1145 19.7951 21.1567 19.8514 21.1567 19.9709C21.1567 20.0482 21.1426 20.1185 21.1145 20.1818C21.0863 20.2521 21.0442 20.3084 20.9949 20.3576C20.9457 20.4068 20.8895 20.449 20.8262 20.4771H20.8192C20.784 20.4701 20.7488 20.456 20.7067 20.456C20.6363 20.456 20.566 20.4771 20.5098 20.5053C20.4676 20.4982 20.4254 20.4982 20.3902 20.4842C20.3059 20.4561 20.2215 20.4209 20.109 20.3717C20.0949 20.3717 20.0738 20.3576 20.0387 20.3436C19.9895 20.3225 19.9403 20.3014 19.891 20.2873C19.8418 20.2662 19.7996 20.2521 19.7574 20.2381C19.7434 20.2311 19.7293 20.224 19.7223 20.224L19.5535 20.0553L19.3215 20.8568L19.4621 20.9061C19.5324 20.9342 19.6168 20.9623 19.7223 20.9975C19.8277 21.0326 19.9332 21.0678 20.0387 21.0959C20.109 21.117 20.1723 21.1311 20.2356 21.1451V22.1014C20.2356 22.1436 20.2496 22.1857 20.2637 22.2209C18.7801 22.0381 17.6199 20.7795 17.6199 19.2396C17.6199 17.6998 18.7801 16.4482 20.2637 16.2584C20.2496 16.2936 20.2356 16.3287 20.2356 16.3779ZM21.1848 22.0873V21.0607C21.3113 20.9975 21.4309 20.9271 21.5293 20.8287C21.6418 20.7162 21.7332 20.5826 21.8035 20.435C21.8738 20.2803 21.909 20.1186 21.909 19.9498C21.909 19.8092 21.8809 19.6756 21.8246 19.5561C21.7684 19.4436 21.6981 19.3451 21.6067 19.2607C21.5223 19.1764 21.4238 19.1061 21.3113 19.0428C21.2059 18.9865 21.1004 18.9303 20.9879 18.8951C20.9106 18.867 20.8262 18.8389 20.7277 18.8037C20.6434 18.7756 20.566 18.7404 20.4957 18.6982C20.4324 18.6631 20.3762 18.6209 20.334 18.5646C20.2988 18.5225 20.2848 18.4732 20.2848 18.41C20.2848 18.3678 20.2918 18.3256 20.3129 18.2904C20.334 18.2482 20.3692 18.2131 20.4043 18.185C20.4465 18.1568 20.4957 18.1287 20.5449 18.1146C20.6574 18.0795 20.7699 18.0865 20.8473 18.1146C20.9035 18.1357 20.9528 18.1568 20.9949 18.1779L21.1356 18.2482C21.2973 18.3326 21.4731 18.3115 21.5785 18.185C21.6348 18.1146 21.6699 18.0373 21.6699 17.9459C21.6699 17.8686 21.6418 17.749 21.5152 17.6435C21.4379 17.5803 21.3465 17.531 21.241 17.4959C21.2199 17.4889 21.1918 17.4818 21.1707 17.4748V16.3709C21.1707 16.3357 21.1567 16.3006 21.1496 16.2654C22.1551 16.4482 22.9918 17.1232 23.3926 18.0373V20.4209C22.9988 21.335 22.1621 22.01 21.1496 22.1928C21.1707 22.1646 21.1848 22.1295 21.1848 22.0873ZM27.9559 6.09121L34.4598 7.86308L24.0676 13.0381C23.6598 13.242 23.4067 13.6568 23.4067 14.1068V16.4131C22.6895 15.71 21.7121 15.274 20.6363 15.274C18.4496 15.274 16.6707 17.0529 16.6707 19.2396C16.6707 21.4264 18.4496 23.2053 20.6363 23.2053C21.7121 23.2053 22.6895 22.7693 23.4067 22.0662V26.3975L16.5653 24.3725V13.3896L27.9559 6.09121ZM13.816 10.2115L4.36603 8.03183L13.6895 2.49121L24.3067 5.2123C24.5387 5.26855 24.7637 5.24042 24.9746 5.17011L14.7301 11.7373C14.6949 11.7584 14.6738 11.7865 14.6457 11.8076C14.6668 11.7514 14.702 11.7021 14.716 11.6459C14.8567 10.999 14.4559 10.3592 13.816 10.2115Z" fill="white"/>
<path d="M38.9949 19.31L27.4426 16.1951C26.8098 16.0193 26.1488 16.399 25.9801 17.0389C25.8113 17.6787 26.184 18.3326 26.8238 18.5014L38.8613 21.7498C38.9668 21.7779 39.0653 21.792 39.1707 21.792C39.3887 21.792 39.5996 21.7357 39.7895 21.6232L52.4106 14.0225C52.9731 13.685 53.1559 12.9467 52.8184 12.3842C52.4809 11.8217 51.7426 11.6389 51.1801 11.9764L38.9949 19.31Z" fill="white"/>
<path d="M52.8113 15.6186C52.4668 15.0561 51.7285 14.8803 51.166 15.2248L39.2129 22.5584L27.4356 19.4436C26.7957 19.2748 26.1418 19.6545 25.9731 20.2943C25.8043 20.9342 26.184 21.5881 26.8238 21.7568L39.1004 25.0053C39.1988 25.0334 39.3043 25.0475 39.4027 25.0475C39.6207 25.0475 39.8387 24.9842 40.0285 24.8717L52.4176 17.2709C52.9801 16.9193 53.1559 16.1811 52.8113 15.6186Z" fill="white"/>
<path d="M52.8113 18.867C52.4668 18.3045 51.7285 18.1287 51.166 18.4732L39.2199 25.8068L27.4426 22.692C26.8028 22.5232 26.1488 22.9029 25.9801 23.5428C25.8113 24.1826 26.191 24.8365 26.8309 25.0053L39.1074 28.2537C39.2059 28.2818 39.3113 28.2959 39.4098 28.2959C39.6277 28.2959 39.8457 28.2326 40.0356 28.1201L52.4246 20.5193C52.9801 20.1678 53.1559 19.4295 52.8113 18.867Z" fill="white"/>
<path d="M51.1731 21.7217L39.2199 29.0553L27.4426 25.9404C26.8028 25.7717 26.1488 26.1514 25.9801 26.7912C25.8113 27.4311 26.191 28.085 26.8309 28.2537L39.1074 31.5021C39.2059 31.5303 39.3113 31.5443 39.4098 31.5443C39.6277 31.5443 39.8457 31.4811 40.0356 31.3686L52.4246 23.7678C52.9871 23.4232 53.1629 22.685 52.8184 22.1225C52.4668 21.5529 51.7356 21.3771 51.1731 21.7217Z" fill="white"/>
</svg>
