<svg width="54" height="52" viewBox="0 0 54 52" fill="none" xmlns="http://www.w3.org/2000/svg">
<path d="M25.0415 23.9474C24.9185 23.9474 24.7946 23.9536 24.6703 23.9655L6.13564 25.7499C4.50047 25.9074 3.1657 27.077 2.84953 28.6292C2.53336 30.1813 3.31055 31.7501 4.76285 32.4902L8.1808 34.2319L1.09137 41.0567C0.392578 41.7295 0 42.6421 0 43.5933C0 44.5445 0.392578 45.4572 1.09137 46.1299L5.72502 50.5902C6.4527 51.2911 7.40648 51.6411 8.3601 51.6411C9.31371 51.6411 10.2675 51.2911 10.9952 50.5902L18.0846 43.7658L19.8939 47.0562C20.5484 48.2462 21.8266 48.9654 23.1867 48.9654C23.4245 48.9654 23.6647 48.9434 23.9045 48.8981C25.5172 48.5938 26.7324 47.3086 26.8958 45.7344L28.7494 27.8921C28.8606 26.8213 28.4668 25.7589 27.6766 24.9982C26.9745 24.3225 26.0245 23.9474 25.0415 23.9474ZM23.1874 45.3775L19.0172 37.7943L8.35992 48.0536L3.72627 43.5932L14.3836 33.3339L6.50631 29.3196L25.041 27.5353L23.1874 45.3775ZM26.8218 12.5924C27.8508 12.5924 28.6853 11.7894 28.6853 10.7989V1.79351C28.6853 0.803027 27.8507 0 26.8218 0C25.7929 0 24.9584 0.80297 24.9584 1.79351V10.7988C24.9584 11.7893 25.7929 12.5924 26.8218 12.5924ZM37.5335 16.8636C38.0104 16.8636 38.4868 16.6885 38.8508 16.3381L45.4654 9.97056C46.1931 9.27051 46.1931 8.13438 45.4654 7.43433C44.7377 6.73348 43.5584 6.73348 42.8303 7.43433L36.2162 13.8016C35.4879 14.5019 35.4879 15.6378 36.2162 16.3382C36.5798 16.6886 37.0567 16.8636 37.5335 16.8636ZM51.3245 23.5874H41.9699C40.9406 23.5874 40.1064 24.3904 40.1064 25.3814C40.1064 26.3719 40.9406 27.1749 41.9699 27.1749H51.3245C52.3538 27.1749 53.188 26.3719 53.188 25.3814C53.188 24.3905 52.3538 23.5874 51.3245 23.5874ZM38.8508 34.4243C38.1231 33.7234 36.9438 33.7234 36.2161 34.4243C35.4879 35.1246 35.4879 36.2605 36.2161 36.9608L42.8303 43.3281C43.1943 43.6785 43.6712 43.8536 44.148 43.8536C44.6245 43.8536 45.1014 43.6785 45.4654 43.3281C46.1931 42.6281 46.1931 41.4919 45.4654 40.7919L38.8508 34.4243ZM14.7929 16.3381C15.1566 16.6885 15.6335 16.8636 16.1103 16.8636C16.5871 16.8636 17.0636 16.6884 17.4277 16.3381C18.1553 15.6377 18.1553 14.5019 17.4277 13.8015L10.8131 7.43421C10.0854 6.73336 8.90602 6.73336 8.17834 7.43421C7.45066 8.13427 7.45066 9.27039 8.17834 9.97045L14.7929 16.3381Z" fill="white"/>
</svg>
