<svg width="54" height="65" viewBox="0 0 54 65" fill="none" xmlns="http://www.w3.org/2000/svg">
<path d="M26.6563 64.0299C24.4046 64.0299 17.7188 60.3999 11.726 55.198C8.3237 52.2434 5.5913 49.1975 3.6069 46.1461C1.2133 42.4677 0 38.896 0 35.5311V9.5326C0 8.9826 0.5236 8.7439 1.5268 8.3314C2.211 8.0509 3.212 7.6714 4.4968 7.2193C6.6583 6.4493 9.6668 5.4417 13.4486 4.2097C19.8825 2.1131 26.3945 0.0813995 26.4594 0.0604995L26.6563 0L26.8532 0.0604995C26.9181 0.0813995 33.4301 2.1131 39.8585 4.2097C43.637 5.4417 46.6488 6.4537 48.8103 7.2193C50.1017 7.6769 51.1027 8.0509 51.7858 8.3314C52.789 8.7439 53.3126 8.9837 53.3126 9.5326V35.5289C53.3126 38.8938 52.1026 42.4655 49.7057 46.1439C47.7257 49.1953 44.9889 52.2412 41.5866 55.1958C35.5938 60.3999 28.908 64.0299 26.6563 64.0299ZM1.32 9.8593V35.5289C1.32 43.2564 8.382 50.5439 12.5917 54.1992C18.5724 59.3934 24.9117 62.7077 26.6563 62.7077C28.4009 62.7077 34.7413 59.3934 40.7209 54.1992C44.9306 50.5439 51.9926 43.2564 51.9926 35.5289V9.8593C49.9444 8.8066 35.6818 4.1998 26.6563 1.3827C17.6308 4.1998 3.3682 8.8099 1.32 9.8593Z" fill="white"/>
<path d="M26.6563 60.2426L26.4616 60.1821C22.0451 58.8148 17.4922 56.0648 13.64 52.4381C10.67 49.6452 8.2148 46.7181 6.5285 43.9681C4.6387 40.8881 3.6806 38.0149 3.6806 35.442V11.2541L4.0854 11.0847C5.9686 10.2971 9.2235 9.3192 12.9954 8.1873C17.1336 6.9443 21.8251 5.5352 26.4374 3.8852L26.6574 3.806L26.8774 3.8852C31.4897 5.5352 36.1812 6.9443 40.3194 8.1873C44.088 9.3192 47.3429 10.2971 49.2294 11.0847L49.6342 11.2541V35.4365C49.6342 38.0094 48.6761 40.8782 46.7863 43.9626C45.1 46.7126 42.6415 49.6452 39.6748 52.4326C35.8248 56.0626 31.2697 58.8126 26.8543 60.1766L26.6563 60.2426ZM5.0006 12.1385V35.4365C5.0006 37.763 5.8938 40.3986 7.6538 43.2729C9.2796 45.9261 11.6633 48.7641 14.5453 51.4767C18.1962 54.9142 22.4895 57.5267 26.6563 58.8599C30.8231 57.53 35.1164 54.9142 38.7673 51.4767C41.6504 48.7641 44.033 45.9272 45.6588 43.2729C47.4188 40.3986 48.312 37.763 48.312 35.4365V12.1385C46.442 11.4037 43.4115 10.494 39.941 9.4512C35.8545 8.2236 31.2345 6.8299 26.6563 5.2074C22.0836 6.8343 17.4592 8.2236 13.3716 9.4512C9.9022 10.494 6.8717 11.4037 5.0006 12.1385Z" fill="white"/>
<path d="M26.5276 43.0694L13.3672 33.902L16.2272 29.799L25.3044 36.1218L35.8435 20.9891L39.9465 23.8491L26.5276 43.0694ZM15.2042 33.5731L26.2042 41.2324L38.1073 24.1747L36.1713 22.8272L25.6311 37.9599L16.5539 31.6371L15.2042 33.5731Z" fill="white"/>
</svg>
